<?xml version="1.0" encoding="utf-8"?>
<!-- Generator: Adobe Illustrator 18.0.0, SVG Export Plug-In . SVG Version: 6.00 Build 0)  -->
<!DOCTYPE svg PUBLIC "-//W3C//DTD SVG 1.1 Tiny//EN" "http://www.w3.org/Graphics/SVG/1.1/DTD/svg11-tiny.dtd">
<svg version="1.1" baseProfile="tiny" id="Layer_1" xmlns="http://www.w3.org/2000/svg" xmlns:xlink="http://www.w3.org/1999/xlink"
	 x="0px" y="0px" width="96px" height="96px" viewBox="0 0 96 96" xml:space="preserve">
<path fill="#FFFFFF" d="M69,57.9c0,0.6-0.8,1.1-1.4,1.1H28.4c-0.6,0-1.4-0.5-1.4-1.1V41.7c2,1.3,3.5,2.8,5.3,4.2
	c1.1,0.9,2.3,1.7,3.4,2.6l-4.5,8l5.7-7.1c1.6,1.2,3.1,2.3,4.6,3.3c1.4,0.9,2.6,1.7,3.7,2.3c0.5,0.3,1.1,0.5,1.5,0.7
	c0.5,0.2,0.9,0.3,1.4,0.3c0.5,0,0.9-0.1,1.4-0.3c1.7-0.6,4.1-2.1,6.8-4c0.9-0.7,1.9-1.4,2.9-2.2l5.5,7.1l-4.2-8
	c2.9-2.2,5.5-4.6,8.5-6.7V57.9z M69,39.2c-3,2.1-5.7,4.6-8.7,7c-2.7,2.1-5.4,4-7.6,5.5c-1.1,0.7-2.1,1.3-2.9,1.7
	c-0.8,0.4-1.5,0.6-1.7,0.6c-0.1,0-0.4,0-0.7-0.2c-1.3-0.5-3.7-1.9-6.4-3.8c-4-2.8-8.9-6.6-12.6-9.7c-0.4-0.3-0.4-0.7-1.4-1v-1
	c0-0.6,0.8-1.1,1.4-1.1h39.1c0.6,0,1.4,0.5,1.4,1.1V39.2z"/>
</svg>
