<?xml version="1.0" encoding="utf-8"?>
<!-- Generator: Adobe Illustrator 18.0.0, SVG Export Plug-In . SVG Version: 6.00 Build 0)  -->
<!DOCTYPE svg PUBLIC "-//W3C//DTD SVG 1.1 Tiny//EN" "http://www.w3.org/Graphics/SVG/1.1/DTD/svg11-tiny.dtd">
<svg version="1.1" baseProfile="tiny" id="Layer_1" xmlns="http://www.w3.org/2000/svg" xmlns:xlink="http://www.w3.org/1999/xlink"
	 x="0px" y="0px" width="96px" height="96px" viewBox="0 0 96 96" xml:space="preserve">
<path fill="#FFFFFF" d="M53.8,66c-0.9,0.2-1.3-0.4-1.3-0.9c0-0.6,0-2.6,0-5.1c0-1.7-0.6-2.8-1.3-3.4c4.1-0.5,8.4-2,8.4-9.1
	c0-2-0.7-3.6-1.9-5c0.2-0.5,0.8-2.3-0.2-4.9c0,0-1.5-0.5-5.1,1.9c-1.5-0.4-3-0.6-4.6-0.6s-3.2,0.2-4.6,0.6c-3.5-2.4-5.1-1.9-5.1-1.9
	c-1,2.5-0.4,4.4-0.2,4.9c-1.2,1.3-1.9,3-1.9,5c0,7.1,4.3,8.6,8.4,9.1c-0.5,0.5-1,1.3-1.2,2.5c-1.1,0.5-3.7,1.3-5.4-1.5
	c0,0-1-1.8-2.8-1.9c0,0-1.8,0-0.1,1.1c0,0,1.2,0.6,2,2.7c0,0,1.1,3.3,6.2,2.2c0,1.5,0,3,0,3.4c0,0.5-0.3,1-1.3,0.9
	c-7.3-2.4-12.6-9.3-12.6-17.5C29.6,38.3,37.8,30,48,30s18.4,8.3,18.4,18.4C66.4,56.6,61.2,63.5,53.8,66z"/>
</svg>
