<?xml version="1.0" encoding="utf-8"?>
<!-- Generator: Adobe Illustrator 18.0.0, SVG Export Plug-In . SVG Version: 6.00 Build 0)  -->
<!DOCTYPE svg PUBLIC "-//W3C//DTD SVG 1.1 Tiny//EN" "http://www.w3.org/Graphics/SVG/1.1/DTD/svg11-tiny.dtd">
<svg version="1.1" baseProfile="tiny" id="Layer_1" xmlns="http://www.w3.org/2000/svg" xmlns:xlink="http://www.w3.org/1999/xlink"
	 x="0px" y="0px" width="96px" height="96px" viewBox="0 0 96 96" xml:space="preserve">
<path fill="#222222" d="M39,63h-6V42h6V63z M35.6,40L35.6,40c-2.3,0-3.8-1.6-3.8-3.6c0-2,1.5-3.6,3.9-3.6c2.3,0,3.8,1.6,3.8,3.6
	C39.4,38.4,38,40,35.6,40z M64,63h-7V52.2c0-2.8-1.1-4.6-3.5-4.6c-1.9,0-2.9,1.3-3.4,2.5c-0.2,0.4-0.1,1-0.1,1.7V63h-7.2
	c0,0,0.1-19,0-21H50v3.6c0-1.4,2.5-3.4,6.1-3.4c4.5,0,7.9,2.9,7.9,9.2V63z"/>
</svg>
