<?xml version="1.0" encoding="utf-8"?>
<!-- Generator: Adobe Illustrator 18.0.0, SVG Export Plug-In . SVG Version: 6.00 Build 0)  -->
<!DOCTYPE svg PUBLIC "-//W3C//DTD SVG 1.1//EN" "http://www.w3.org/Graphics/SVG/1.1/DTD/svg11.dtd">
<svg version="1.1" id="Layer_1" xmlns="http://www.w3.org/2000/svg" xmlns:xlink="http://www.w3.org/1999/xlink" x="0px" y="0px"
	 width="96px" height="78px" viewBox="0 0 96 78" enable-background="new 0 0 96 78" xml:space="preserve">
<path fill="#FFFFFF" d="M96,9.2c-3.5,1.6-7.3,2.6-11.3,3.1c4.1-2.4,7.2-6.3,8.7-10.9c-3.8,2.3-8,3.9-12.5,4.8
	C77.2,2.4,72.1,0,66.5,0C55.6,0,46.8,8.8,46.8,19.7c0,1.5,0.2,3,0.5,4.5C30.9,23.4,16.4,15.5,6.7,3.6C5,6.5,4,9.9,4,13.5
	c0,6.8,3.5,12.9,8.8,16.4c-3.2-0.1-6.3-1-8.9-2.5c0,0.1,0,0.2,0,0.2c0,9.5,6.8,17.5,15.8,19.3c-1.7,0.4-3.4,0.7-5.2,0.7
	c-1.3,0-2.5-0.1-3.7-0.4c2.5,7.8,9.8,13.5,18.4,13.7c-6.7,5.3-15.2,8.4-24.5,8.4c-1.6,0-3.2-0.1-4.7-0.3C8.7,74.8,19.1,78,30.2,78
	c36.2,0,56-30,56-56c0-0.9,0-1.7-0.1-2.5C90,16.7,93.4,13.2,96,9.2z"/>
</svg>
