<?xml version="1.0" encoding="utf-8"?>
<!-- Generator: Adobe Illustrator 18.0.0, SVG Export Plug-In . SVG Version: 6.00 Build 0)  -->
<!DOCTYPE svg PUBLIC "-//W3C//DTD SVG 1.1 Tiny//EN" "http://www.w3.org/Graphics/SVG/1.1/DTD/svg11-tiny.dtd">
<svg version="1.1" baseProfile="tiny" id="Layer_1" xmlns="http://www.w3.org/2000/svg" xmlns:xlink="http://www.w3.org/1999/xlink"
	 x="0px" y="0px" width="96px" height="96px" viewBox="0 0 96 96" xml:space="preserve">
<path fill="#FFFFFF" d="M60.9,40.2c0,0.3,0,0.6,0,1c0,10-7.1,21.6-20,21.6c-4,0-7.7-1.3-10.8-3.4c0.5,0.1,1.1,0.1,1.7,0.1
	c3.3,0,6.3-1.2,8.7-3.2c-3.1,0-5.7-2.2-6.6-5.3c0.4,0.1,0.9,0.1,1.3,0.1c0.6,0,1-0.1,1.6-0.3c-3.2-0.7-5.9-3.8-5.9-7.4
	c0,0,0-0.1,0-0.1c1,0.6,2.3,0.9,3.4,0.9c-1.9-1.3-3-3.7-3-6.3c0-1.4,0.4-2.7,1-3.8c3.5,4.6,8.7,7.6,14.5,7.9
	c-0.1-0.5-0.2-1.1-0.2-1.7c0-4.2,3.2-7.6,7.1-7.6c2,0,3.9,0.9,5.1,2.4c1.6-0.4,3.1-1,4.5-1.8c-0.5,1.8-1.6,3.3-3.1,4.2
	c1.4-0.2,2.8-0.6,4.1-1.2C63.5,37.8,62.3,39.1,60.9,40.2z"/>
</svg>
